<svg xmlns="http://www.w3.org/2000/svg" xmlns:xlink="http://www.w3.org/1999/xlink" width="233.731" height="80" viewBox="0 0 233.731 80">
  <defs>
    <clipPath id="clip-path">
      <rect id="Rectangle_354" data-name="Rectangle 354" width="233.731" height="80" fill="#fff"/>
    </clipPath>
  </defs>
  <g id="Groupe_1267" data-name="Groupe 1267" clip-path="url(#clip-path)">
    <path id="Tracé_978" data-name="Tracé 978" d="M208.728,107.805v12.979c0,1.186.626,1.615,1.747,1.615a16.945,16.945,0,0,0,6.16-1.845V107.805h1.91v16.043h-1.679l-.133-1.449a18.016,18.016,0,0,1-6.522,1.778c-2.5,0-3.394-1.417-3.394-3.623V107.805Z" transform="translate(-126.309 -65.84)" fill="#fff"/>
    <path id="Tracé_979" data-name="Tracé 979" d="M262.218,123.332V110.352c0-1.185-.626-1.615-1.746-1.615a16.933,16.933,0,0,0-6.158,1.846v12.748H252.4V107.289h1.682l.131,1.449a18.008,18.008,0,0,1,6.522-1.777c2.5,0,3.4,1.417,3.4,3.624v12.748Z" transform="translate(-154.148 -65.324)" fill="#fff"/>
    <path id="Tracé_980" data-name="Tracé 980" d="M295.391,107.617H297.3v3.524h-1.911Zm0,5.417H297.3v10.7h-1.911Z" transform="translate(-180.404 -65.725)" fill="#fff"/>
    <path id="Tracé_981" data-name="Tracé 981" d="M318.551,123.847H315.62L310.183,107.8h1.946l4.94,14.692,4.976-14.692h1.941Z" transform="translate(-189.437 -65.839)" fill="#fff"/>
    <path id="Tracé_982" data-name="Tracé 982" d="M358.12,121.981a20.266,20.266,0,0,0,5.072-.758l.33,1.548a17.736,17.736,0,0,1-5.536.889c-4.514,0-5.959-2.339-5.959-5.83v-5.04c0-3.294,1.481-5.831,5.993-5.831s5.833,2.537,5.833,5.831v3.1h-9.915V117.9c0,2.865.988,4.085,4.183,4.085m-4.183-7.806h8.036v-1.45c0-2.7-.955-4.118-3.953-4.118s-4.083,1.417-4.083,4.118Z" transform="translate(-214.993 -65.324)" fill="#fff"/>
    <path id="Tracé_983" data-name="Tracé 983" d="M401.581,108.839a36.025,36.025,0,0,0-5.074,2.964v11.529H394.6V107.29h1.713l.1,2.439a27.059,27.059,0,0,1,4.942-2.767Z" transform="translate(-240.993 -65.324)" fill="#fff"/>
    <path id="Tracé_984" data-name="Tracé 984" d="M425.562,123.661a13.668,13.668,0,0,1-4.711-.823l.329-1.548a15.789,15.789,0,0,0,4.249.659c2.964,0,3.558-.561,3.558-2.6,0-2.307-.065-2.536-3.721-3.394-4.019-.955-4.349-1.943-4.349-4.874,0-2.668,1.284-4.118,5.235-4.118a18.1,18.1,0,0,1,4.546.559l-.2,1.615a25.6,25.6,0,0,0-4.48-.461c-2.8,0-3.194.726-3.194,2.47,0,2.207.131,2.436,3.094,3.2,4.711,1.185,4.976,1.942,4.976,4.94,0,2.9-1.054,4.381-5.336,4.381" transform="translate(-257.026 -65.324)" fill="#fff"/>
    <path id="Tracé_985" data-name="Tracé 985" d="M458.57,107.617h1.912v3.524H458.57Zm0,5.417h1.912v10.7H458.57Z" transform="translate(-280.062 -65.725)" fill="#fff"/>
    <path id="Tracé_986" data-name="Tracé 986" d="M483.722,118.185a7.714,7.714,0,0,1-2.981.5c-2.535,0-3.623-.923-3.623-3.458V103.96h-3.1v-1.647h3.1V99.075l1.913-.262v3.5h4.37l-.2,1.647H479.03v11.067c0,1.417.2,2.011,1.844,2.011a7.439,7.439,0,0,0,2.486-.336Z" transform="translate(-289.499 -60.348)" fill="#fff"/>
    <path id="Tracé_987" data-name="Tracé 987" d="M511.984,121.981a20.254,20.254,0,0,0,5.072-.758l.331,1.548a17.732,17.732,0,0,1-5.534.889c-4.515,0-5.964-2.339-5.964-5.83v-5.04c0-3.294,1.484-5.831,6-5.831s5.831,2.537,5.831,5.831v3.1H507.8V117.9c0,2.865.989,4.085,4.185,4.085m-4.185-7.806h8.04v-1.45c0-2.7-.957-4.118-3.954-4.118s-4.085,1.417-4.085,4.118Z" transform="translate(-308.961 -65.324)" fill="#fff"/>
    <path id="Tracé_988" data-name="Tracé 988" d="M515.941,97.571c1.478-.478,3.221-1.055,4.877-1.69l.571,1.639A47.189,47.189,0,0,1,516.47,99.1Z" transform="translate(-315.1 -58.557)" fill="#fff"/>
    <path id="Tracé_989" data-name="Tracé 989" d="M101.09,50.041h-3.4L95.54,43.79H84.483l-2.111,6.252h-3.4L87.766,24.02H92.3ZM90.033,26.44,85.381,40.86h9.3Z" transform="translate(-48.232 -14.67)" fill="#fff"/>
    <path id="Tracé_990" data-name="Tracé 990" d="M144.667,22.009h3.282v4.727h-3.282Zm0,7.776h3.282V48.813h-3.282Z" transform="translate(-88.352 -13.442)" fill="#fff"/>
    <path id="Tracé_991" data-name="Tracé 991" d="M160.976,61.014l6.251-9.575-6.135-9.453h3.4l4.531,6.994,4.533-6.994h3.4l-6.172,9.453,6.289,9.575h-3.437l-4.611-7.073-4.57,7.073Z" transform="translate(-98.313 -25.642)" fill="#fff"/>
    <path id="Tracé_992" data-name="Tracé 992" d="M262.883,28.943l-.507,21.1h-3.242l.9-26.021h4.26l7.5,20.121,7.5-20.121h4.258l.9,26.021h-3.243l-.508-21.1L274.059,46.68h-4.533Z" transform="translate(-158.26 -14.67)" fill="#fff"/>
    <path id="Tracé_993" data-name="Tracé 993" d="M346.842,60.4h-2.773l-.2-1.409a10.813,10.813,0,0,1-6.172,1.8c-3.556,0-5.041-2.109-5.041-5.47,0-3.945,1.992-5.353,5.823-5.353h5.079V47c0-2.384-1.056-3.2-4.143-3.2a25.456,25.456,0,0,0-5.1.5l-.352-2.616a21.864,21.864,0,0,1,5.645-.691c5.431,0,7.227,2.109,7.227,6.173Zm-3.279-7.7h-4.847c-2.03,0-2.774.626-2.774,2.54,0,1.954.354,2.735,2.7,2.735a9.521,9.521,0,0,0,4.925-1.562Z" transform="translate(-203.165 -25.028)" fill="#fff"/>
    <path id="Tracé_994" data-name="Tracé 994" d="M389.959,43.989a41.463,41.463,0,0,0-5.431,3.283V60.4h-3.282V41.372H384.1l.194,2.656a24.284,24.284,0,0,1,5.237-3.048Z" transform="translate(-232.837 -25.028)" fill="#fff"/>
    <path id="Tracé_995" data-name="Tracé 995" d="M415.231,60.789a19.465,19.465,0,0,1-6.057-1.015l.431-2.579a21.7,21.7,0,0,0,5.431.781c3.008,0,3.515-.547,3.515-2.578s-.156-2.268-3.986-3.2c-4.727-1.172-5.156-2.149-5.156-6.094,0-3.517,1.563-5.119,6.563-5.119a21.454,21.454,0,0,1,5.392.664l-.235,2.7a30.48,30.48,0,0,0-5.274-.549c-2.812,0-3.2.665-3.2,2.385,0,2.11.039,2.5,3.243,3.282,5.47,1.366,5.9,2.032,5.9,5.822,0,3.709-1.132,5.508-6.563,5.508" transform="translate(-249.894 -25.028)" fill="#fff"/>
    <path id="Tracé_996" data-name="Tracé 996" d="M458.422,57.976a24.09,24.09,0,0,0,6.017-.9l.429,2.619a20.7,20.7,0,0,1-6.719,1.093c-5.626,0-7.542-2.7-7.542-6.993V48.091c0-3.946,1.8-7.111,7.463-7.111,5.625,0,7.151,3.243,7.151,7.189v3.985H453.889v1.6c0,3.009.82,4.22,4.533,4.22m-4.533-8.557h8.168V47.856c0-2.656-.9-4.141-3.986-4.141s-4.182,1.486-4.182,4.141Z" transform="translate(-275.198 -25.028)" fill="#fff"/>
    <path id="Tracé_997" data-name="Tracé 997" d="M498.214,22.009H501.5v4.727h-3.284Zm0,7.776H501.5V48.813h-3.284Z" transform="translate(-304.273 -13.442)" fill="#fff"/>
    <path id="Tracé_998" data-name="Tracé 998" d="M521.73,48.078v-26.8l3.279-.469V48.078Z" transform="translate(-318.635 -12.706)" fill="#fff"/>
    <path id="Tracé_999" data-name="Tracé 999" d="M545.238,48.078v-26.8l3.284-.469V48.078Z" transform="translate(-332.992 -12.706)" fill="#fff"/>
    <path id="Tracé_1000" data-name="Tracé 1000" d="M570.71,57.976a24.072,24.072,0,0,0,6.015-.9l.428,2.619a20.7,20.7,0,0,1-6.72,1.093c-5.626,0-7.539-2.7-7.539-6.993V48.091c0-3.946,1.8-7.111,7.462-7.111,5.626,0,7.149,3.243,7.149,7.189v3.985H566.176v1.6c0,3.009.821,4.22,4.534,4.22m-4.534-8.557h8.167V47.856c0-2.656-.9-4.141-3.985-4.141s-4.182,1.486-4.182,4.141Z" transform="translate(-343.776 -25.028)" fill="#fff"/>
    <path id="Tracé_1001" data-name="Tracé 1001" d="M223.42,48.2l-5.153-2.975-.237-.137.237-.137,5.153-2.975a.787.787,0,0,0,.34-.517,2.3,2.3,0,0,0,.055-.524,3.058,3.058,0,0,0-.023-.386l-.016-.13-.1-.077a2.3,2.3,0,0,0-1.106-.482.638.638,0,0,0-.322.083l-5.153,2.974-.237.137V31.971a1.044,1.044,0,0,0-.577-.779,3.428,3.428,0,0,0-.483-.256l-.12-.052-.12.052a3.532,3.532,0,0,0-.477.256,1.041,1.041,0,0,0-.571.779V43.053l-.237-.137-5.152-2.975a.64.64,0,0,0-.323-.081,2.3,2.3,0,0,0-1.105.48l-.1.078-.016.128a3.157,3.157,0,0,0-.022.386,2.28,2.28,0,0,0,.054.525.783.783,0,0,0,.341.517l5.152,2.975.237.137-.237.137L207.945,48.2a.78.78,0,0,0-.339.517,2.244,2.244,0,0,0-.054.524,3.162,3.162,0,0,0,.022.387l.016.128.1.079a2.3,2.3,0,0,0,1.105.479h0a.639.639,0,0,0,.318-.08l5.152-2.974h0l.237-.137v6.223a1.04,1.04,0,0,0,.578.779,3.332,3.332,0,0,0,.482.257l.119.05.12-.05a3.393,3.393,0,0,0,.478-.257,1.041,1.041,0,0,0,.571-.779v-5.95h0v-.275l.238.137,5.153,2.975a.64.64,0,0,0,.322.081,2.3,2.3,0,0,0,1.105-.481l.1-.078.015-.129a2.816,2.816,0,0,0,.023-.385,2.292,2.292,0,0,0-.055-.524.779.779,0,0,0-.34-.517" transform="translate(-126.757 -18.862)" fill="#fff"/>
    <path id="Tracé_1002" data-name="Tracé 1002" d="M0,40.022A60.5,60.5,0,0,1,1.084,28.257,56.619,56.619,0,0,1,4.374,17.47,78.175,78.175,0,0,1,9.83,6.83a38.628,38.628,0,0,1,3.29-4.685C13.976,1.1,14.883,0,16.132,0q2.043,0,2.041,1.123a33.509,33.509,0,0,1-1.916,4.519q-1.916,4.143-3.6,8.681a81.331,81.331,0,0,0-3.12,11.329A69.044,69.044,0,0,0,8.1,40.022a68.572,68.572,0,0,0,1.416,14.2A81.869,81.869,0,0,0,13,65.842c1.208,3.275,2.153,6.213,3.359,8.808a32.681,32.681,0,0,1,1.813,4.226Q18.174,80,16.132,80c-1.276,0-2.152-1.276-3.013-2.247a37.022,37.022,0,0,1-3.29-4.666,84.291,84.291,0,0,1-5.436-10.6,56.439,56.439,0,0,1-3.268-10.6A59.013,59.013,0,0,1,0,40.022" transform="translate(0 -0.001)" fill="#fff"/>
    <path id="Tracé_1003" data-name="Tracé 1003" d="M78.975,179.107l.31-1.093a10.185,10.185,0,0,0,2.935.506c1.745,0,2.2-.473,2.429-1.777a5.34,5.34,0,0,0,.114-.848c0-.684-.424-.864-2.006-1.271-1.891-.49-2.462-1.092-2.462-2.234a7.137,7.137,0,0,1,.114-1.092c.392-2.2,1.272-2.772,3.865-2.772a12.461,12.461,0,0,1,2.853.375l-.244,1.157a13.5,13.5,0,0,0-2.691-.326c-1.842,0-2.185.294-2.413,1.6a6.369,6.369,0,0,0-.114.9c0,.685.408.88,1.908,1.288,2.005.538,2.576,1.06,2.576,2.136a6.46,6.46,0,0,1-.13,1.108c-.343,1.973-.979,2.951-3.93,2.951a9.117,9.117,0,0,1-3.115-.6" transform="translate(-48.232 -102.923)" fill="#fff"/>
    <path id="Tracé_1004" data-name="Tracé 1004" d="M110.573,181.273l.408-2.315c.342-1.94,1.451-2.935,3.734-2.935,1.826,0,2.772,1.011,2.772,2.364a2.782,2.782,0,0,1-.049.554L117,181.436c-.309,1.794-1.255,2.853-3.718,2.853-2.266,0-3.016-1.3-2.706-3.016m5.527-2.332a2.763,2.763,0,0,0,.049-.473c0-.864-.506-1.288-1.631-1.288a1.985,1.985,0,0,0-2.2,1.859l-.408,2.3c-.179,1.093.081,1.794,1.565,1.794a1.922,1.922,0,0,0,2.2-1.777Z" transform="translate(-67.49 -107.502)" fill="#fff"/>
    <path id="Tracé_1005" data-name="Tracé 1005" d="M145.843,177.458a5.754,5.754,0,0,0-1.7-.277c-1.288,0-1.777.44-2.055,1.94l-.522,2.968a2.489,2.489,0,0,0-.032.342c0,.506.261.7.946.7a7.471,7.471,0,0,0,2.463-.538l.179,1.092a6.862,6.862,0,0,1-2.788.6c-1.5,0-2.136-.7-2.136-1.777a3.93,3.93,0,0,1,.065-.62l.522-2.952c.392-2.2,1.321-2.918,3.424-2.918a5.653,5.653,0,0,1,1.924.359Z" transform="translate(-85.625 -107.502)" fill="#fff"/>
    <path id="Tracé_1006" data-name="Tracé 1006" d="M167.213,171.142l1.369-.2-1.418,8.039h-1.337Zm.587-3.342,1.369-.2-.359,2.038-1.369.179Z" transform="translate(-101.275 -102.361)" fill="#fff"/>
    <path id="Tracé_1007" data-name="Tracé 1007" d="M190.373,184.127h-1.109l.049-.962a4.455,4.455,0,0,1-2.967,1.125,1.457,1.457,0,0,1-1.68-1.582,4.208,4.208,0,0,1,.065-.619l.554-3.147c.342-1.923,1.06-2.918,3.571-2.918a8.694,8.694,0,0,1,2.853.538Zm-.147-6.75a6.125,6.125,0,0,0-1.533-.2c-1.223,0-1.826.375-2.1,1.94l-.506,2.87a3.928,3.928,0,0,0-.065.554c0,.375.163.587.652.587a4.265,4.265,0,0,0,2.788-1.386Z" transform="translate(-112.781 -107.503)" fill="#fff"/>
    <path id="Tracé_1008" data-name="Tracé 1008" d="M216.581,167.8l1.369-.2-2.006,11.381h-1.337Z" transform="translate(-131.067 -102.36)" fill="#fff"/>
    <path id="Tracé_1009" data-name="Tracé 1009" d="M234.968,182.008a1.836,1.836,0,0,0-.033.359c0,.505.244.8,1.092.8a7.021,7.021,0,0,0,2.9-.831l.293.995a6.758,6.758,0,0,1-3.375.961c-1.6,0-2.234-.75-2.234-1.842a4.322,4.322,0,0,1,.065-.734l.473-2.674c.359-2.006,1.256-3.016,3.506-3.016,1.321,0,2.267.619,2.267,1.793,0,1.337-.62,2.006-2.854,2.755-.962.326-1.272.408-1.956.62Zm3.7-4.044c0-.522-.391-.848-1.109-.848a1.773,1.773,0,0,0-2.038,1.744l-.2,1.093c.44-.13.7-.212,1.468-.44,1.321-.392,1.875-.9,1.875-1.549" transform="translate(-142.675 -107.503)" fill="#fff"/>
    <path id="Tracé_1010" data-name="Tracé 1010" d="M271.489,178.012a2.086,2.086,0,0,0,.032-.277c0-.326-.163-.44-.554-.44a6.868,6.868,0,0,0-2.984,1.19l-.995,5.642h-1.337l1.076-6.114a2.076,2.076,0,0,0,.032-.277c0-.326-.163-.44-.554-.44a7.062,7.062,0,0,0-3,1.19l-.995,5.642h-1.337l1.386-7.843,1.174-.2-.1,1.125a7.45,7.45,0,0,1,3.359-1.19,1.23,1.23,0,0,1,1.4,1.19,7.215,7.215,0,0,1,3.359-1.19,1.255,1.255,0,0,1,1.419,1.4,3.816,3.816,0,0,1-.065.685l-1.06,6.016h-1.337Z" transform="translate(-159.323 -107.502)" fill="#fff"/>
    <path id="Tracé_1011" data-name="Tracé 1011" d="M305.536,182.008a1.839,1.839,0,0,0-.033.359c0,.505.244.8,1.092.8a7.021,7.021,0,0,0,2.9-.831l.293.995a6.758,6.758,0,0,1-3.375.961c-1.6,0-2.234-.75-2.234-1.842a4.318,4.318,0,0,1,.065-.734l.473-2.674c.359-2.006,1.256-3.016,3.506-3.016,1.321,0,2.267.619,2.267,1.793,0,1.337-.62,2.006-2.854,2.755-.962.326-1.272.408-1.956.62Zm3.7-4.044c0-.522-.391-.848-1.109-.848a1.773,1.773,0,0,0-2.038,1.744l-.2,1.093c.44-.13.7-.212,1.468-.44,1.321-.392,1.875-.9,1.875-1.549" transform="translate(-185.773 -107.503)" fill="#fff"/>
    <path id="Tracé_1012" data-name="Tracé 1012" d="M338.682,177.426a3.848,3.848,0,0,1-.065.685l-1.06,6.017H336.22l1.076-6.114a2.158,2.158,0,0,0,.033-.277c0-.326-.163-.44-.555-.44a7.062,7.062,0,0,0-3,1.19l-.995,5.642h-1.337l1.385-7.843,1.174-.2-.1,1.125a7.449,7.449,0,0,1,3.359-1.19,1.255,1.255,0,0,1,1.419,1.4" transform="translate(-202.422 -107.503)" fill="#fff"/>
    <path id="Tracé_1013" data-name="Tracé 1013" d="M363.316,179.923a1.855,1.855,0,0,1,.032-.358l.946-5.364h-1.4l.2-1.109h1.4l.343-1.957,1.37-.179-.375,2.136h2.185l-.228,1.109h-2.153l-.945,5.348a.853.853,0,0,0-.017.179c0,.229.131.342.457.342a3.585,3.585,0,0,0,1.468-.342l.309.929a4.671,4.671,0,0,1-2.153.538c-.978,0-1.434-.554-1.434-1.272" transform="translate(-221.628 -104.407)" fill="#fff"/>
    <path id="Tracé_1014" data-name="Tracé 1014" d="M409.148,182.008a1.863,1.863,0,0,0-.032.359c0,.505.244.8,1.092.8a7.021,7.021,0,0,0,2.9-.831l.293.995a6.752,6.752,0,0,1-3.375.961c-1.6,0-2.234-.75-2.234-1.842a4.35,4.35,0,0,1,.065-.734l.473-2.674c.359-2.006,1.255-3.016,3.506-3.016,1.321,0,2.266.619,2.266,1.793,0,1.337-.62,2.006-2.853,2.755-.962.326-1.272.408-1.956.62Zm3.7-4.044c0-.522-.391-.848-1.108-.848a1.773,1.773,0,0,0-2.038,1.744l-.2,1.093c.44-.13.7-.212,1.468-.44,1.321-.392,1.875-.9,1.875-1.549" transform="translate(-249.052 -107.503)" fill="#fff"/>
    <path id="Tracé_1015" data-name="Tracé 1015" d="M442.294,177.426a3.818,3.818,0,0,1-.066.685l-1.06,6.017h-1.337l1.076-6.114a2.108,2.108,0,0,0,.033-.277c0-.326-.164-.44-.554-.44a7.057,7.057,0,0,0-3,1.19l-.995,5.642h-1.338l1.386-7.843,1.174-.2-.1,1.125a7.449,7.449,0,0,1,3.359-1.19,1.255,1.255,0,0,1,1.419,1.4" transform="translate(-265.7 -107.503)" fill="#fff"/>
    <path id="Tracé_1016" data-name="Tracé 1016" d="M470.754,185.334c-.294,1.664-.962,2.169-2.788,2.169a9.743,9.743,0,0,1-3.261-.669l.277-1.011a9,9,0,0,0,3.033.57c1.011,0,1.272-.309,1.419-1.157l.407-2.3a4.656,4.656,0,0,1-2.919,1.028,1.457,1.457,0,0,1-1.679-1.582,4.254,4.254,0,0,1,.065-.619l.506-2.788c.342-1.924,1.125-2.951,3.636-2.951a8.369,8.369,0,0,1,2.837.57Zm.065-7.941a6.673,6.673,0,0,0-1.6-.212c-1.321,0-1.826.408-2.1,1.973l-.457,2.544a3.511,3.511,0,0,0-.065.521c0,.375.164.587.652.587a5.053,5.053,0,0,0,2.837-1.288Z" transform="translate(-283.808 -107.503)" fill="#fff"/>
    <path id="Tracé_1017" data-name="Tracé 1017" d="M501.9,184.127H500.8l.049-.962a4.455,4.455,0,0,1-2.968,1.125,1.457,1.457,0,0,1-1.679-1.582,4.262,4.262,0,0,1,.065-.619l.554-3.147c.342-1.923,1.06-2.918,3.571-2.918a8.7,8.7,0,0,1,2.853.538Zm-.147-6.75a6.128,6.128,0,0,0-1.533-.2c-1.223,0-1.826.375-2.1,1.94l-.506,2.87a3.919,3.919,0,0,0-.065.554c0,.375.163.587.652.587a4.266,4.266,0,0,0,2.788-1.386Z" transform="translate(-303.042 -107.503)" fill="#fff"/>
    <path id="Tracé_1018" data-name="Tracé 1018" d="M531.057,185.334c-.294,1.664-.962,2.169-2.788,2.169a9.744,9.744,0,0,1-3.261-.669l.277-1.011a9,9,0,0,0,3.033.57c1.011,0,1.272-.309,1.419-1.157l.407-2.3a4.656,4.656,0,0,1-2.919,1.028,1.457,1.457,0,0,1-1.679-1.582,4.262,4.262,0,0,1,.065-.619l.506-2.788c.342-1.924,1.125-2.951,3.636-2.951a8.369,8.369,0,0,1,2.837.57Zm.065-7.941a6.675,6.675,0,0,0-1.6-.212c-1.321,0-1.826.408-2.1,1.973l-.457,2.544a3.527,3.527,0,0,0-.065.521c0,.375.164.587.652.587a5.054,5.054,0,0,0,2.837-1.288Z" transform="translate(-320.637 -107.503)" fill="#fff"/>
    <path id="Tracé_1019" data-name="Tracé 1019" d="M558.022,177.07a1.86,1.86,0,0,0-.032.359c0,.506.244.8,1.092.8a7.029,7.029,0,0,0,2.9-.831l.293.995a6.752,6.752,0,0,1-3.374.961c-1.6,0-2.234-.75-2.234-1.842a4.391,4.391,0,0,1,.065-.734l.473-2.674c.358-2.006,1.255-3.016,3.506-3.016,1.321,0,2.266.619,2.266,1.793,0,1.338-.62,2.006-2.853,2.756-.962.326-1.272.408-1.957.62Zm3.7-4.044c0-.522-.391-.847-1.109-.847a1.772,1.772,0,0,0-2.038,1.744l-.2,1.092c.44-.13.7-.212,1.468-.44,1.321-.392,1.875-.9,1.875-1.549m-1.924-3.653a18.359,18.359,0,0,0,2.413-1.435l.505.9a14.373,14.373,0,0,1-2.446,1.386Z" transform="translate(-339.974 -102.564)" fill="#fff"/>
    <path id="Tracé_1020" data-name="Tracé 1020" d="M585.573,182.008a1.836,1.836,0,0,0-.033.359c0,.505.245.8,1.093.8a7.024,7.024,0,0,0,2.9-.831l.293.995a6.755,6.755,0,0,1-3.375.961c-1.6,0-2.234-.75-2.234-1.842a4.4,4.4,0,0,1,.065-.734l.473-2.674c.359-2.006,1.255-3.016,3.506-3.016,1.321,0,2.266.619,2.266,1.793,0,1.337-.62,2.006-2.853,2.755-.962.326-1.272.408-1.957.62Zm3.7-4.044c0-.522-.392-.848-1.109-.848a1.773,1.773,0,0,0-2.038,1.744l-.2,1.093c.44-.13.7-.212,1.468-.44,1.321-.392,1.876-.9,1.876-1.549" transform="translate(-356.8 -107.503)" fill="#fff"/>
  </g>
</svg>
